<?xml version="1.0" standalone="no"?><svg xmlns="http://www.w3.org/2000/svg" viewBox="0 0 1440 320"><path fill="#0099ff" fill-opacity="1" d="M0,192L30,202.7C60,213,120,235,180,208C240,181,300,107,360,74.7C420,43,480,53,540,90.7C600,128,660,192,720,218.7C780,245,840,235,900,208C960,181,1020,139,1080,154.7C1140,171,1200,245,1260,256C1320,267,1380,213,1410,186.7L1440,160L1440,320L1410,320C1380,320,1320,320,1260,320C1200,320,1140,320,1080,320C1020,320,960,320,900,320C840,320,780,320,720,320C660,320,600,320,540,320C480,320,420,320,360,320C300,320,240,320,180,320C120,320,60,320,30,320L0,320Z"></path></svg>